<mxfile host="Electron" agent="Mozilla/5.0 (Windows NT 10.0; Win64; x64) AppleWebKit/537.36 (KHTML, like Gecko) draw.io/26.0.9 Chrome/128.0.6613.186 Electron/32.2.5 Safari/537.36" version="26.0.9">
  <diagram name="Seite-1" id="4ODMT-tyjRFM5NADc2XN">
    <mxGraphModel dx="1975" dy="1139" grid="1" gridSize="1" guides="1" tooltips="1" connect="1" arrows="1" fold="1" page="1" pageScale="1" pageWidth="512" pageHeight="512" math="0" shadow="0">
      <root>
        <mxCell id="0" />
        <mxCell id="1" parent="0" />
        <mxCell id="_KdyNQBvBpn_tOjGs-hn-2" value="" style="ellipse;whiteSpace=wrap;html=1;aspect=fixed;strokeWidth=22;fillColor=none;" vertex="1" parent="1">
          <mxGeometry x="120" y="120" width="80" height="80" as="geometry" />
        </mxCell>
        <mxCell id="_KdyNQBvBpn_tOjGs-hn-3" value="" style="ellipse;whiteSpace=wrap;html=1;aspect=fixed;strokeWidth=22;fillColor=none;" vertex="1" parent="1">
          <mxGeometry x="220" y="320" width="80" height="80" as="geometry" />
        </mxCell>
        <mxCell id="_KdyNQBvBpn_tOjGs-hn-4" value="" style="ellipse;whiteSpace=wrap;html=1;aspect=fixed;strokeWidth=22;fillColor=none;" vertex="1" parent="1">
          <mxGeometry x="320" y="160" width="80" height="80" as="geometry" />
        </mxCell>
        <mxCell id="_KdyNQBvBpn_tOjGs-hn-5" value="" style="endArrow=none;html=1;rounded=1;entryX=0.5;entryY=1;entryDx=0;entryDy=0;exitX=0.273;exitY=0.909;exitDx=0;exitDy=0;exitPerimeter=0;strokeWidth=22;curved=0;" edge="1" parent="1" target="_KdyNQBvBpn_tOjGs-hn-2">
          <mxGeometry width="50" height="50" relative="1" as="geometry">
            <mxPoint x="160.1199999999999" y="439.96000000000004" as="sourcePoint" />
            <mxPoint x="490" y="400" as="targetPoint" />
          </mxGeometry>
        </mxCell>
        <mxCell id="_KdyNQBvBpn_tOjGs-hn-6" value="" style="endArrow=none;html=1;rounded=1;entryX=0.5;entryY=1;entryDx=0;entryDy=0;strokeWidth=22;curved=0;" edge="1" parent="1">
          <mxGeometry width="50" height="50" relative="1" as="geometry">
            <mxPoint x="360" y="440" as="sourcePoint" />
            <mxPoint x="359.5" y="240" as="targetPoint" />
          </mxGeometry>
        </mxCell>
        <mxCell id="_KdyNQBvBpn_tOjGs-hn-7" value="" style="endArrow=none;html=1;rounded=1;exitX=0.5;exitY=0;exitDx=0;exitDy=0;strokeWidth=22;curved=0;" edge="1" parent="1" source="_KdyNQBvBpn_tOjGs-hn-2">
          <mxGeometry width="50" height="50" relative="1" as="geometry">
            <mxPoint x="159.6199999999999" y="120.00000000000006" as="sourcePoint" />
            <mxPoint x="160" y="80" as="targetPoint" />
          </mxGeometry>
        </mxCell>
        <mxCell id="_KdyNQBvBpn_tOjGs-hn-8" value="" style="endArrow=none;html=1;rounded=1;exitX=0.5;exitY=0;exitDx=0;exitDy=0;strokeWidth=22;curved=0;" edge="1" parent="1" source="_KdyNQBvBpn_tOjGs-hn-4">
          <mxGeometry width="50" height="50" relative="1" as="geometry">
            <mxPoint x="359.4999999999999" y="160.00000000000006" as="sourcePoint" />
            <mxPoint x="360" y="80" as="targetPoint" />
          </mxGeometry>
        </mxCell>
        <mxCell id="_KdyNQBvBpn_tOjGs-hn-9" value="" style="endArrow=none;html=1;rounded=1;exitX=0.5;exitY=0;exitDx=0;exitDy=0;strokeWidth=22;curved=0;" edge="1" parent="1" source="_KdyNQBvBpn_tOjGs-hn-3">
          <mxGeometry width="50" height="50" relative="1" as="geometry">
            <mxPoint x="370" y="170" as="sourcePoint" />
            <mxPoint x="260" y="80" as="targetPoint" />
          </mxGeometry>
        </mxCell>
        <mxCell id="_KdyNQBvBpn_tOjGs-hn-10" value="" style="endArrow=none;html=1;rounded=1;strokeWidth=22;curved=0;entryX=0.5;entryY=1;entryDx=0;entryDy=0;" edge="1" parent="1" target="_KdyNQBvBpn_tOjGs-hn-3">
          <mxGeometry width="50" height="50" relative="1" as="geometry">
            <mxPoint x="260" y="440" as="sourcePoint" />
            <mxPoint x="380" y="100" as="targetPoint" />
          </mxGeometry>
        </mxCell>
        <mxCell id="_KdyNQBvBpn_tOjGs-hn-11" value="" style="rounded=1;whiteSpace=wrap;html=1;fillColor=none;strokeWidth=22;" vertex="1" parent="1">
          <mxGeometry x="40" y="40" width="430" height="440" as="geometry" />
        </mxCell>
        <mxCell id="_KdyNQBvBpn_tOjGs-hn-13" value="" style="shape=or;whiteSpace=wrap;html=1;rotation=-90;fillColor=#000000;" vertex="1" parent="1">
          <mxGeometry x="154.25" y="63.25" width="11.5" height="21" as="geometry" />
        </mxCell>
        <mxCell id="_KdyNQBvBpn_tOjGs-hn-14" value="" style="shape=or;whiteSpace=wrap;html=1;rotation=-90;fillColor=#000000;" vertex="1" parent="1">
          <mxGeometry x="254.25" y="63.25" width="11.5" height="21" as="geometry" />
        </mxCell>
        <mxCell id="_KdyNQBvBpn_tOjGs-hn-15" value="" style="shape=or;whiteSpace=wrap;html=1;rotation=-90;fillColor=#000000;" vertex="1" parent="1">
          <mxGeometry x="354.25" y="63.25" width="11.5" height="21" as="geometry" />
        </mxCell>
        <mxCell id="_KdyNQBvBpn_tOjGs-hn-16" value="" style="shape=or;whiteSpace=wrap;html=1;rotation=-90;fillColor=#000000;flipV=1;flipH=1;" vertex="1" parent="1">
          <mxGeometry x="154.25" y="435" width="11.5" height="21" as="geometry" />
        </mxCell>
        <mxCell id="_KdyNQBvBpn_tOjGs-hn-17" value="" style="shape=or;whiteSpace=wrap;html=1;rotation=-90;fillColor=#000000;flipV=1;flipH=1;" vertex="1" parent="1">
          <mxGeometry x="254.25" y="435" width="11.5" height="21" as="geometry" />
        </mxCell>
        <mxCell id="_KdyNQBvBpn_tOjGs-hn-18" value="" style="shape=or;whiteSpace=wrap;html=1;rotation=-90;fillColor=#000000;flipH=1;" vertex="1" parent="1">
          <mxGeometry x="354.25" y="435" width="11.5" height="21" as="geometry" />
        </mxCell>
      </root>
    </mxGraphModel>
  </diagram>
</mxfile>
